# xmcd
#
# Track frame offsets:
#	150
#	25831
#	42482
#	60222
#	80132
#	96487
#	116598
#	134366
#	156794
#	177166
#	199428
#	220312
#
# Disc length: 3150 seconds
#
# Revision: 0
# Processed by: cddbd v1.5.2PL0 Copyright (c) Steve Scherf et al.
# Submitted via: EZCDAudioConverter 1.3.4.1
#
DISCID=ac0c4c0c
DTITLE=Janko Nilovic - Last Impressions 2/2
DYEAR=1900
DGENRE=
TTITLE0=Spacial Special [Minimatic]
TTITLE1=Soul Expressions [Le Grand David]
TTITLE2=Voval Improvisation [Cucumber]
TTITLE3=Neo Post Scriptum [Metropolitan Jazz Affair]
TTITLE4=Leslie's Back [DJ Day]
TTITLE5=Tandoori Flock [Patchworks]
TTITLE6=African Boost [Kid Loco]
TTITLE7=Nova Samba Dio [DJ Farrapo]
TTITLE8=Escape To Chelsea [Casbah 73]
TTITLE9=Atchika Nova [7 Samurai]
TTITLE10=Summer Breeze [The Big Knife]
TTITLE11=Flock At Montego Bay [Roudoudou]
EXTD=
EXTT0=
EXTT1=
EXTT2=
EXTT3=
EXTT4=
EXTT5=
EXTT6=
EXTT7=
EXTT8=
EXTT9=
EXTT10=
EXTT11=
PLAYORDER=
